<?xml version="1.0" standalone="no"?>
<!DOCTYPE svg PUBLIC "-//W3C//DTD SVG 20010904//EN"
 "http://www.w3.org/TR/2001/REC-SVG-20010904/DTD/svg10.dtd">
<svg version="1.0" xmlns="http://www.w3.org/2000/svg"
 width="586.000000pt" height="586.000000pt" viewBox="0 0 586.000000 586.000000"
 preserveAspectRatio="xMidYMid meet">
<metadata>
Created by potrace 1.14, written by Peter Selinger 2001-2017
</metadata>
<g transform="translate(0.000000,586.000000) scale(0.100000,-0.100000)"
fill="#000000" stroke="none">
<path d="M1700 4397 l0 -1464 71 3 c593 24 1127 425 1313 985 37 110 62 220
71 309 3 29 7 55 9 57 2 2 6 -30 10 -71 7 -76 45 -244 70 -306 51 -127 73
-174 121 -256 146 -247 352 -438 614 -569 80 -41 232 -97 291 -109 14 -2 50
-10 80 -16 62 -13 129 -21 210 -25 30 -2 56 -3 57 -4 2 -1 -25 -50 -182 -321
-65 -113 -176 -304 -245 -425 -70 -121 -160 -276 -200 -345 -40 -69 -84 -145
-98 -170 -55 -97 -353 -613 -379 -655 -7 -11 -15 -26 -19 -34 -4 -8 -36 -64
-72 -125 -35 -61 -121 -210 -191 -331 -70 -121 -163 -282 -207 -357 -43 -76
-81 -138 -84 -138 -3 0 -5 653 -4 1450 1 1264 -1 1448 -13 1430 -15 -22 -132
-221 -192 -328 -20 -35 -40 -71 -46 -81 -11 -18 -90 -154 -123 -211 -34 -60
-299 -518 -517 -895 -114 -198 -216 -375 -227 -392 -10 -18 -28 -50 -40 -70
-12 -21 -43 -76 -70 -123 -27 -47 -57 -98 -67 -115 -10 -16 -29 -50 -43 -75
-54 -96 -321 -557 -340 -588 l-20 -32 1694 2 1693 3 0 2925 0 2925 -65 -1
c-126 -1 -217 -16 -360 -59 -332 -100 -601 -301 -797 -595 -126 -189 -196
-382 -233 -640 -4 -30 -8 -46 -10 -35 -4 44 -25 172 -35 215 -19 84 -54 180
-101 280 -81 171 -179 305 -323 442 -183 174 -417 300 -665 358 -106 25 -133
29 -243 36 l-93 6 0 -1465z"/>
</g>
</svg>
